# Blender v2.74 (sub 0) OBJ File: 'untitled.blend'
# www.blender.org
mtllib TARDIS.mtl
o Cube
v 3.088648 -5.456001 -3.088649
v 3.088648 -5.456001 3.088649
v -3.088648 -5.456001 3.088649
v -3.088646 -5.456001 -3.088651
v 3.088649 3.784929 -3.088648
v 3.088646 3.784929 3.088651
v -3.088649 3.784929 3.088648
v -3.088647 3.784929 -3.088649
v 3.299157 -5.579342 -3.299158
v 3.299157 -5.579342 3.299159
v -3.299155 -5.579342 -3.299160
v -3.299157 -5.579342 3.299158
v 3.088649 4.637873 -3.088648
v 3.088646 4.637873 3.088651
v -3.088647 4.637873 -3.088649
v -3.088649 4.637873 3.088648
v 2.375919 4.986012 -2.375918
v 2.375916 4.986012 2.375921
v -2.375917 4.986012 -2.375919
v -2.375919 4.986012 2.375918
v -0.311089 5.107862 0.311090
v -0.311089 5.107862 -0.311089
v 0.311089 5.107862 0.311090
v 0.311089 5.107862 -0.311088
v -0.311089 6.013025 0.311090
v -0.311089 6.013025 -0.311089
v 0.311089 6.013025 0.311090
v 0.311089 6.013025 -0.311088
v -2.070689 1.384712 3.106630
v -2.070689 3.384712 3.106630
v -0.874315 2.384712 3.106630
v -1.472502 2.384712 3.106630
v -0.276128 1.384712 3.106630
v -0.276128 3.384712 3.106630
v -0.276128 2.384712 3.106630
v -2.070689 2.384712 3.106630
v -0.874315 3.384712 3.106630
v -1.472502 3.384712 3.106630
v -1.472502 1.384712 3.106630
v -0.874315 1.384712 3.106630
v 0.334458 1.384712 3.106630
v 0.334458 3.384712 3.106630
v 1.530833 2.384712 3.106630
v 0.932646 2.384712 3.106630
v 2.129020 1.384712 3.106630
v 2.129020 3.384712 3.106630
v 2.129020 2.384712 3.106630
v 0.334458 2.384712 3.106630
v 1.530833 3.384712 3.106630
v 0.932646 3.384712 3.106630
v 0.932646 1.384712 3.106630
v 1.530833 1.384712 3.106630
v 0.498140 -0.605762 3.106630
v 0.498140 0.782442 3.106630
v -1.601636 0.493511 3.106630
v -0.745182 0.493511 3.106630
v 1.965338 -0.605762 3.106630
v 1.965338 0.782442 3.106630
v -0.745182 -0.316832 3.106630
v -1.601636 -0.316832 3.106630
v -0.439810 0.782442 3.106630
v -0.439810 -0.605762 3.106630
v -1.907007 0.782442 3.106630
v -1.907007 -0.605762 3.106630
v 0.498140 -2.670450 3.106630
v 0.498140 -1.282245 3.106630
v 1.965338 -2.670450 3.106630
v 1.965338 -1.282245 3.106630
v -1.939198 -2.670450 3.106630
v -1.939198 -1.282245 3.106630
v -0.472000 -2.670450 3.106630
v -0.472000 -1.282245 3.106630
v 0.498140 -4.755280 3.106630
v 0.498140 -3.367076 3.106630
v 1.965338 -4.755280 3.106630
v 1.965338 -3.367076 3.106630
v -1.939198 -4.755280 3.106630
v -1.939198 -3.367076 3.106630
v -0.472000 -4.755280 3.106630
v -0.472000 -3.367076 3.106630
v 2.118289 1.384712 -3.097121
v 2.118289 3.384712 -3.097121
v 0.921915 2.384712 -3.097121
v 1.520103 2.384712 -3.097121
v 0.323728 1.384712 -3.097121
v 0.323728 3.384712 -3.097121
v 0.323728 2.384712 -3.097121
v 2.118289 2.384712 -3.097121
v 0.921915 3.384712 -3.097121
v 1.520103 3.384712 -3.097121
v 1.520103 1.384712 -3.097121
v 0.921915 1.384712 -3.097121
v -0.286858 1.384712 -3.097121
v -0.286858 3.384712 -3.097121
v -1.483232 2.384712 -3.097121
v -0.885045 2.384712 -3.097121
v -2.081420 1.384712 -3.097121
v -2.081420 3.384712 -3.097121
v -2.081420 2.384712 -3.097121
v -0.286858 2.384712 -3.097121
v -1.483232 3.384712 -3.097121
v -0.885045 3.384712 -3.097121
v -0.885045 1.384712 -3.097121
v -1.483232 1.384712 -3.097121
v -0.450540 -0.605762 -3.097121
v -0.450540 0.782442 -3.097121
v -1.917737 -0.605762 -3.097121
v -1.917737 0.782442 -3.097121
v 0.487410 0.782442 -3.097121
v 0.487410 -0.605762 -3.097121
v 1.954608 0.782442 -3.097121
v 1.954608 -0.605762 -3.097121
v -0.450540 -2.670450 -3.097121
v -0.450540 -1.282245 -3.097121
v -1.917737 -2.670450 -3.097121
v -1.917737 -1.282245 -3.097121
v 1.986799 -2.670450 -3.097121
v 1.986799 -1.282245 -3.097121
v 0.519601 -2.670450 -3.097121
v 0.519601 -1.282245 -3.097121
v -0.450540 -4.755280 -3.097121
v -0.450540 -3.367076 -3.097121
v -1.917737 -4.755280 -3.097121
v -1.917737 -3.367076 -3.097121
v 1.986799 -4.755280 -3.097121
v 1.986799 -3.367076 -3.097121
v 0.519601 -4.755280 -3.097121
v 0.519601 -3.367076 -3.097121
v 3.157266 1.384712 2.070498
v 3.157266 3.384712 2.070498
v 3.157266 2.384712 0.874124
v 3.157266 2.384712 1.472311
v 3.157266 1.384712 0.275937
v 3.157266 3.384712 0.275937
v 3.157266 2.384712 0.275937
v 3.157266 2.384712 2.070498
v 3.157266 3.384712 0.874124
v 3.157266 3.384712 1.472311
v 3.157266 1.384712 1.472311
v 3.157266 1.384712 0.874124
v 3.157266 1.384712 -0.334649
v 3.157266 3.384712 -0.334649
v 3.157266 2.384712 -1.531024
v 3.157266 2.384712 -0.932836
v 3.157266 1.384712 -2.129211
v 3.157266 3.384712 -2.129211
v 3.157266 2.384712 -2.129211
v 3.157266 2.384712 -0.334649
v 3.157266 3.384712 -1.531024
v 3.157266 3.384712 -0.932836
v 3.157266 1.384712 -0.932836
v 3.157266 1.384712 -1.531024
v 3.157266 -0.605762 -0.498331
v 3.157266 0.782442 -0.498331
v 3.157266 -0.605762 -1.965529
v 3.157266 0.782442 -1.965529
v 3.157266 0.782442 0.439619
v 3.157266 -0.605762 0.439619
v 3.157266 0.782442 1.906817
v 3.157266 -0.605762 1.906817
v 3.157266 -2.670450 -0.498331
v 3.157266 -1.282245 -0.498331
v 3.157266 -2.670450 -1.965529
v 3.157266 -1.282245 -1.965529
v 3.157266 -2.670450 1.939007
v 3.157266 -1.282245 1.939007
v 3.157266 -2.670450 0.471810
v 3.157266 -1.282245 0.471810
v 3.157266 -4.755280 -0.498331
v 3.157266 -3.367076 -0.498331
v 3.157266 -4.755280 -1.965529
v 3.157266 -3.367076 -1.965529
v 3.157266 -4.755280 1.939007
v 3.157266 -3.367076 1.939007
v 3.157266 -4.755280 0.471810
v 3.157266 -3.367076 0.471810
v -3.106489 1.384712 -2.118480
v -3.106489 3.384712 -2.118480
v -3.106489 2.384712 -0.922106
v -3.106489 2.384712 -1.520293
v -3.106489 1.384712 -0.323919
v -3.106489 3.384712 -0.323919
v -3.106489 2.384712 -0.323919
v -3.106489 2.384712 -2.118480
v -3.106489 3.384712 -0.922106
v -3.106489 3.384712 -1.520293
v -3.106489 1.384712 -1.520293
v -3.106489 1.384712 -0.922106
v -3.106489 1.384712 0.286667
v -3.106489 3.384712 0.286667
v -3.106489 2.384712 1.483042
v -3.106489 2.384712 0.884854
v -3.106488 1.384712 2.081229
v -3.106488 3.384712 2.081229
v -3.106488 2.384712 2.081229
v -3.106489 2.384712 0.286667
v -3.106489 3.384712 1.483042
v -3.106489 3.384712 0.884854
v -3.106489 1.384712 0.884854
v -3.106489 1.384712 1.483042
v -3.106489 -0.605762 0.450349
v -3.106489 0.782442 0.450349
v -3.106488 -0.605762 1.917547
v -3.106488 0.782442 1.917547
v -3.106489 0.782442 -0.487601
v -3.106489 -0.605762 -0.487601
v -3.106489 0.782442 -1.954799
v -3.106489 -0.605762 -1.954799
v -3.106489 -2.670450 0.450349
v -3.106489 -1.282245 0.450349
v -3.106488 -2.670450 1.917547
v -3.106488 -1.282245 1.917547
v -3.106489 -2.670450 -1.986989
v -3.106489 -1.282245 -1.986989
v -3.106489 -2.670450 -0.519792
v -3.106489 -1.282245 -0.519792
v -3.106489 -4.755280 0.450349
v -3.106489 -3.367076 0.450349
v -3.106488 -4.755280 1.917547
v -3.106488 -3.367076 1.917547
v -3.106489 -4.755280 -1.986989
v -3.106489 -3.367076 -1.986989
v -3.106489 -4.755280 -0.519792
v -3.106489 -3.367076 -0.519792
v 3.299157 -6.005372 -3.299158
v 3.299157 -6.005372 3.299159
v -3.299155 -6.005372 -3.299160
v -3.299157 -6.005372 3.299158
vn -0.505500 0.862800 -0.000000
vn -1.000000 0.000000 -0.000000
vn 1.000000 0.000000 0.000000
vn -0.000000 -0.000000 1.000000
vn 0.000000 0.000000 -1.000000
vn -0.000000 0.862800 0.505500
vn 0.000000 0.862800 -0.505500
vn 0.505500 0.862800 0.000000
vn -0.438900 0.898500 -0.000000
vn 0.000000 0.998300 -0.058900
vn -0.000000 0.898500 0.438900
vn 0.000000 0.898500 -0.438900
vn 0.438900 0.898500 0.000000
vn 0.058900 0.998300 0.000000
vn -0.000000 0.998300 0.058900
vn -0.058900 0.998300 -0.000000
vn 0.000000 1.000000 0.000000
vn 0.000000 -1.000000 -0.000000
usemtl Material
s off
f 3//1 4//1 11//1 12//1
f 8//2 7//2 16//2 15//2
f 1//3 5//3 6//3 2//3
f 2//4 6//4 7//4 3//4
f 3//2 7//2 8//2 4//2
f 5//5 1//5 4//5 8//5
f 12//2 11//2 227//2 228//2
f 2//6 3//6 12//6 10//6
f 4//7 1//7 9//7 11//7
f 1//8 2//8 10//8 9//8
f 15//9 16//9 20//9 19//9
f 7//4 6//4 14//4 16//4
f 5//5 8//5 15//5 13//5
f 6//3 5//3 13//3 14//3
f 17//10 19//10 22//10 24//10
f 16//11 14//11 18//11 20//11
f 13//12 15//12 19//12 17//12
f 14//13 13//13 17//13 18//13
f 23//3 24//3 28//3 27//3
f 18//14 17//14 24//14 23//14
f 18//15 23//15 21//15 20//15
f 19//16 20//16 21//16 22//16
f 25//17 27//17 28//17 26//17
f 24//5 22//5 26//5 28//5
f 21//4 23//4 27//4 25//4
f 22//2 21//2 25//2 26//2
f 31//4 32//4 39//4 40//4
f 35//4 31//4 40//4 33//4
f 37//4 38//4 32//4 31//4
f 32//4 36//4 29//4 39//4
f 34//4 37//4 31//4 35//4
f 38//4 30//4 36//4 32//4
f 43//4 44//4 51//4 52//4
f 47//4 43//4 52//4 45//4
f 49//4 50//4 44//4 43//4
f 44//4 48//4 41//4 51//4
f 46//4 49//4 43//4 47//4
f 50//4 42//4 48//4 44//4
f 54//4 53//4 57//4 58//4
f 55//4 60//4 59//4 56//4
f 66//4 65//4 67//4 68//4
f 64//5 63//5 61//5 62//5
f 70//4 69//4 71//4 72//4
f 74//4 73//4 75//4 76//4
f 78//4 77//4 79//4 80//4
f 83//5 84//5 91//5 92//5
f 87//5 83//5 92//5 85//5
f 89//5 90//5 84//5 83//5
f 84//5 88//5 81//5 91//5
f 86//5 89//5 83//5 87//5
f 90//5 82//5 88//5 84//5
f 95//5 96//5 103//5 104//5
f 99//5 95//5 104//5 97//5
f 101//5 102//5 96//5 95//5
f 96//5 100//5 93//5 103//5
f 98//5 101//5 95//5 99//5
f 102//5 94//5 100//5 96//5
f 106//5 105//5 107//5 108//5
f 114//5 113//5 115//5 116//5
f 118//5 117//5 119//5 120//5
f 122//5 121//5 123//5 124//5
f 126//5 125//5 127//5 128//5
f 112//5 110//5 109//5 111//5
f 131//3 132//3 139//3 140//3
f 135//3 131//3 140//3 133//3
f 137//3 138//3 132//3 131//3
f 132//3 136//3 129//3 139//3
f 134//3 137//3 131//3 135//3
f 138//3 130//3 136//3 132//3
f 143//3 144//3 151//3 152//3
f 147//3 143//3 152//3 145//3
f 149//3 150//3 144//3 143//3
f 144//3 148//3 141//3 151//3
f 146//3 149//3 143//3 147//3
f 150//3 142//3 148//3 144//3
f 154//3 153//3 155//3 156//3
f 162//3 161//3 163//3 164//3
f 166//3 165//3 167//3 168//3
f 170//3 169//3 171//3 172//3
f 174//3 173//3 175//3 176//3
f 160//3 158//3 157//3 159//3
f 179//2 180//2 187//2 188//2
f 183//2 179//2 188//2 181//2
f 185//2 186//2 180//2 179//2
f 180//2 184//2 177//2 187//2
f 182//2 185//2 179//2 183//2
f 186//2 178//2 184//2 180//2
f 191//2 192//2 199//2 200//2
f 195//2 191//2 200//2 193//2
f 197//2 198//2 192//2 191//2
f 192//2 196//2 189//2 199//2
f 194//2 197//2 191//2 195//2
f 198//2 190//2 196//2 192//2
f 202//2 201//2 203//2 204//2
f 210//2 209//2 211//2 212//2
f 214//2 213//2 215//2 216//2
f 218//2 217//2 219//2 220//2
f 222//2 221//2 223//2 224//2
f 208//2 206//2 205//2 207//2
f 225//18 226//18 228//18 227//18
f 10//4 12//4 228//4 226//4
f 11//5 9//5 225//5 227//5
f 9//3 10//3 226//3 225//3
