# Blender v2.76 (sub 0) OBJ File: 'untitled.blend'
# www.blender.org
mtllib TARDIS_convex.mtl
o Cube
v 3.088648 -5.555054 -3.088649
v 3.088648 -5.555054 3.088649
v -3.088648 -5.555054 3.088649
v -3.088646 -5.555054 -3.088651
v 3.088649 3.784929 -3.088648
v 3.088646 3.784929 3.088651
v -3.088649 3.784929 3.088648
v -3.088647 3.784929 -3.088649
v 3.088649 4.637873 -3.088648
v 3.088646 4.637873 3.088651
v -3.088647 4.637873 -3.088649
v -3.088649 4.637873 3.088648
v 2.375919 4.986012 -2.375918
v 2.375916 4.986012 2.375921
v -2.375917 4.986012 -2.375919
v -2.375919 4.986012 2.375918
v -2.070689 1.384712 3.106630
v -2.070689 3.384712 3.106630
v -0.874315 2.384712 3.106630
v -1.472502 2.384712 3.106630
v -0.276128 1.384712 3.106630
v -0.276128 3.384712 3.106630
v -0.276128 2.384712 3.106630
v -2.070689 2.384712 3.106630
v -0.874315 3.384712 3.106630
v -1.472502 3.384712 3.106630
v -1.472502 1.384712 3.106630
v -0.874315 1.384712 3.106630
v 0.334458 1.384712 3.106630
v 0.334458 3.384712 3.106630
v 1.530833 2.384712 3.106630
v 0.932646 2.384712 3.106630
v 2.129020 1.384712 3.106630
v 2.129020 3.384712 3.106630
v 2.129020 2.384712 3.106630
v 0.334458 2.384712 3.106630
v 1.530833 3.384712 3.106630
v 0.932646 3.384712 3.106630
v 0.932646 1.384712 3.106630
v 1.530833 1.384712 3.106630
v 0.498140 -0.605762 3.106630
v 0.498140 0.782442 3.106630
v -1.615793 0.506907 3.106630
v -0.731024 0.506907 3.106630
v 1.965338 -0.605762 3.106630
v 1.965338 0.782442 3.106630
v -0.731024 -0.330227 3.106630
v -1.615793 -0.330227 3.106630
v -0.439810 0.782442 3.106630
v -0.439810 -0.605762 3.106630
v -1.907007 0.782442 3.106630
v -1.907007 -0.605762 3.106630
v 0.498140 -2.670450 3.106630
v 0.498140 -1.282245 3.106630
v 1.965338 -2.670450 3.106630
v 1.965338 -1.282245 3.106630
v -1.939198 -2.670450 3.106630
v -1.939198 -1.282245 3.106630
v -0.472000 -2.670450 3.106630
v -0.472000 -1.282245 3.106630
v 0.498140 -4.755280 3.106630
v 0.498140 -3.367076 3.106630
v 1.965338 -4.755280 3.106630
v 1.965338 -3.367076 3.106630
v -1.939198 -4.755280 3.106630
v -1.939198 -3.367076 3.106630
v -0.472000 -4.755280 3.106630
v -0.472000 -3.367076 3.106630
v 2.118289 1.384712 -3.097121
v 2.118289 3.384712 -3.097121
v 0.921915 2.384712 -3.097121
v 1.520103 2.384712 -3.097121
v 0.323728 1.384712 -3.097121
v 0.323728 3.384712 -3.097121
v 0.323728 2.384712 -3.097121
v 2.118289 2.384712 -3.097121
v 0.921915 3.384712 -3.097121
v 1.520103 3.384712 -3.097121
v 1.520103 1.384712 -3.097121
v 0.921915 1.384712 -3.097121
v -0.286858 1.384712 -3.097121
v -0.286858 3.384712 -3.097121
v -1.483232 2.384712 -3.097121
v -0.885045 2.384712 -3.097121
v -2.081420 1.384712 -3.097121
v -2.081420 3.384712 -3.097121
v -2.081420 2.384712 -3.097121
v -0.286858 2.384712 -3.097121
v -1.483232 3.384712 -3.097121
v -0.885045 3.384712 -3.097121
v -0.885045 1.384712 -3.097121
v -1.483232 1.384712 -3.097121
v -0.450540 -0.605762 -3.097121
v -0.450540 0.782442 -3.097121
v -1.917737 -0.605762 -3.097121
v -1.917737 0.782442 -3.097121
v 0.487410 0.782442 -3.097121
v 0.487410 -0.605762 -3.097121
v 1.954608 0.782442 -3.097121
v 1.954608 -0.605762 -3.097121
v -0.450540 -2.670450 -3.097121
v -0.450540 -1.282245 -3.097121
v -1.917737 -2.670450 -3.097121
v -1.917737 -1.282245 -3.097121
v 1.986799 -2.670450 -3.097121
v 1.986799 -1.282245 -3.097121
v 0.519601 -2.670450 -3.097121
v 0.519601 -1.282245 -3.097121
v -0.450540 -4.755280 -3.097121
v -0.450540 -3.367076 -3.097121
v -1.917737 -4.755280 -3.097121
v -1.917737 -3.367076 -3.097121
v 1.986799 -4.755280 -3.097121
v 1.986799 -3.367076 -3.097121
v 0.519601 -4.755280 -3.097121
v 0.519601 -3.367076 -3.097121
v 3.157266 1.384712 2.070498
v 3.157266 3.384712 2.070498
v 3.157266 2.384712 0.874124
v 3.157266 2.384712 1.472311
v 3.157266 1.384712 0.275937
v 3.157266 3.384712 0.275937
v 3.157266 2.384712 0.275937
v 3.157266 2.384712 2.070498
v 3.157266 3.384712 0.874124
v 3.157266 3.384712 1.472311
v 3.157266 1.384712 1.472311
v 3.157266 1.384712 0.874124
v 3.157266 1.384712 -0.334649
v 3.157266 3.384712 -0.334649
v 3.157266 2.384712 -1.531024
v 3.157266 2.384712 -0.932836
v 3.157266 1.384712 -2.129211
v 3.157266 3.384712 -2.129211
v 3.157266 2.384712 -2.129211
v 3.157266 2.384712 -0.334649
v 3.157266 3.384712 -1.531024
v 3.157266 3.384712 -0.932836
v 3.157266 1.384712 -0.932836
v 3.157266 1.384712 -1.531024
v 3.157266 -0.605762 -0.498331
v 3.157266 0.782442 -0.498331
v 3.157266 -0.605762 -1.965529
v 3.157266 0.782442 -1.965529
v 3.157266 0.782442 0.439619
v 3.157266 -0.605762 0.439619
v 3.157266 0.782442 1.906817
v 3.157266 -0.605762 1.906817
v 3.157266 -2.670450 -0.498331
v 3.157266 -1.282245 -0.498331
v 3.157266 -2.670450 -1.965529
v 3.157266 -1.282245 -1.965529
v 3.157266 -2.670450 1.939007
v 3.157266 -1.282245 1.939007
v 3.157266 -2.670450 0.471810
v 3.157266 -1.282245 0.471810
v 3.157266 -4.755280 -0.498331
v 3.157266 -3.367076 -0.498331
v 3.157266 -4.755280 -1.965529
v 3.157266 -3.367076 -1.965529
v 3.157266 -4.755280 1.939007
v 3.157266 -3.367076 1.939007
v 3.157266 -4.755280 0.471810
v 3.157266 -3.367076 0.471810
v -3.106489 1.384712 -2.118480
v -3.106489 3.384712 -2.118480
v -3.106489 2.384712 -0.922106
v -3.106489 2.384712 -1.520293
v -3.106489 1.384712 -0.323919
v -3.106489 3.384712 -0.323919
v -3.106489 2.384712 -0.323919
v -3.106489 2.384712 -2.118480
v -3.106489 3.384712 -0.922106
v -3.106489 3.384712 -1.520293
v -3.106489 1.384712 -1.520293
v -3.106489 1.384712 -0.922106
v -3.106489 1.384712 0.286667
v -3.106489 3.384712 0.286667
v -3.106489 2.384712 1.483042
v -3.106489 2.384712 0.884854
v -3.106488 1.384712 2.081229
v -3.106488 3.384712 2.081229
v -3.106488 2.384712 2.081229
v -3.106489 2.384712 0.286667
v -3.106489 3.384712 1.483042
v -3.106489 3.384712 0.884854
v -3.106489 1.384712 0.884854
v -3.106489 1.384712 1.483042
v -3.106489 -0.605762 0.450349
v -3.106489 0.782442 0.450349
v -3.106488 -0.605762 1.917547
v -3.106488 0.782442 1.917547
v -3.106489 0.782442 -0.487601
v -3.106489 -0.605762 -0.487601
v -3.106489 0.782442 -1.954799
v -3.106489 -0.605762 -1.954799
v -3.106489 -2.670450 0.450349
v -3.106489 -1.282245 0.450349
v -3.106488 -2.670450 1.917547
v -3.106488 -1.282245 1.917547
v -3.106489 -2.670450 -1.986989
v -3.106489 -1.282245 -1.986989
v -3.106489 -2.670450 -0.519792
v -3.106489 -1.282245 -0.519792
v -3.106489 -4.755280 0.450349
v -3.106489 -3.367076 0.450349
v -3.106488 -4.755280 1.917547
v -3.106488 -3.367076 1.917547
v -3.106489 -4.755280 -1.986989
v -3.106489 -3.367076 -1.986989
v -3.106489 -4.755280 -0.519792
v -3.106489 -3.367076 -0.519792
v 3.088648 -6.215412 -3.088649
v 3.088648 -6.215412 3.088649
v -3.088646 -6.215412 -3.088651
v -3.088648 -6.215412 3.088649
vn -1.000000 0.000000 -0.000000
vn 1.000000 0.000000 0.000000
vn -0.000000 -0.000000 1.000000
vn 0.000000 0.000000 -1.000000
vn -0.438900 0.898500 -0.000000
vn -0.000000 0.898500 0.438900
vn 0.000000 0.898500 -0.438900
vn 0.438900 0.898500 0.000000
vn 0.000000 1.000000 0.000000
vn 0.000000 -1.000000 0.000000
usemtl Material
s off
f 8//1 7//1 12//1 11//1
f 1//2 5//2 6//2 2//2
f 2//3 6//3 7//3 3//3
f 3//1 7//1 8//1 4//1
f 5//4 1//4 4//4 8//4
f 2//3 3//3 216//3 214//3
f 11//5 12//5 16//5 15//5
f 7//3 6//3 10//3 12//3
f 5//4 8//4 11//4 9//4
f 6//2 5//2 9//2 10//2
f 12//6 10//6 14//6 16//6
f 9//7 11//7 15//7 13//7
f 10//8 9//8 13//8 14//8
f 13//9 15//9 16//9 14//9
f 19//3 20//3 27//3 28//3
f 23//3 19//3 28//3 21//3
f 25//3 26//3 20//3 19//3
f 20//3 24//3 17//3 27//3
f 22//3 25//3 19//3 23//3
f 26//3 18//3 24//3 20//3
f 31//3 32//3 39//3 40//3
f 35//3 31//3 40//3 33//3
f 37//3 38//3 32//3 31//3
f 32//3 36//3 29//3 39//3
f 34//3 37//3 31//3 35//3
f 38//3 30//3 36//3 32//3
f 52//3 50//3 49//3 51//3
f 42//3 41//3 45//3 46//3
f 54//3 53//3 55//3 56//3
f 48//3 47//3 44//3 43//3
f 58//3 57//3 59//3 60//3
f 62//3 61//3 63//3 64//3
f 66//3 65//3 67//3 68//3
f 71//4 72//4 79//4 80//4
f 75//4 71//4 80//4 73//4
f 77//4 78//4 72//4 71//4
f 72//4 76//4 69//4 79//4
f 74//4 77//4 71//4 75//4
f 78//4 70//4 76//4 72//4
f 83//4 84//4 91//4 92//4
f 87//4 83//4 92//4 85//4
f 89//4 90//4 84//4 83//4
f 84//4 88//4 81//4 91//4
f 86//4 89//4 83//4 87//4
f 90//4 82//4 88//4 84//4
f 94//4 93//4 95//4 96//4
f 102//4 101//4 103//4 104//4
f 106//4 105//4 107//4 108//4
f 110//4 109//4 111//4 112//4
f 114//4 113//4 115//4 116//4
f 100//4 98//4 97//4 99//4
f 119//2 120//2 127//2 128//2
f 123//2 119//2 128//2 121//2
f 125//2 126//2 120//2 119//2
f 120//2 124//2 117//2 127//2
f 122//2 125//2 119//2 123//2
f 126//2 118//2 124//2 120//2
f 131//2 132//2 139//2 140//2
f 135//2 131//2 140//2 133//2
f 137//2 138//2 132//2 131//2
f 132//2 136//2 129//2 139//2
f 134//2 137//2 131//2 135//2
f 138//2 130//2 136//2 132//2
f 142//2 141//2 143//2 144//2
f 150//2 149//2 151//2 152//2
f 154//2 153//2 155//2 156//2
f 158//2 157//2 159//2 160//2
f 162//2 161//2 163//2 164//2
f 148//2 146//2 145//2 147//2
f 167//1 168//1 175//1 176//1
f 171//1 167//1 176//1 169//1
f 173//1 174//1 168//1 167//1
f 168//1 172//1 165//1 175//1
f 170//1 173//1 167//1 171//1
f 174//1 166//1 172//1 168//1
f 179//1 180//1 187//1 188//1
f 183//1 179//1 188//1 181//1
f 185//1 186//1 180//1 179//1
f 180//1 184//1 177//1 187//1
f 182//1 185//1 179//1 183//1
f 186//1 178//1 184//1 180//1
f 190//1 189//1 191//1 192//1
f 198//1 197//1 199//1 200//1
f 202//1 201//1 203//1 204//1
f 206//1 205//1 207//1 208//1
f 210//1 209//1 211//1 212//1
f 196//1 194//1 193//1 195//1
f 213//10 214//10 216//10 215//10
f 4//4 1//4 213//4 215//4
f 1//2 2//2 214//2 213//2
f 3//1 4//1 215//1 216//1
